<svg width="46" height="20" viewBox="0 0 46 20" fill="none" xmlns="http://www.w3.org/2000/svg">
<circle cx="10" cy="10" r="10" fill="#26B4FF"/>
<circle cx="36" cy="10" r="10" fill="#02BC77"/>
<path d="M10.2114 11.8579H8.57812C8.58301 11.4038 8.62207 11.0229 8.69531 10.7153C8.76855 10.4028 8.89062 10.1196 9.06152 9.86572C9.2373 9.61182 9.46924 9.34326 9.75732 9.06006C9.98193 8.84521 10.1846 8.64258 10.3652 8.45215C10.5459 8.25684 10.6899 8.05176 10.7974 7.83691C10.9048 7.61719 10.9585 7.36572 10.9585 7.08252C10.9585 6.7749 10.9072 6.51367 10.8047 6.29883C10.7021 6.08398 10.5508 5.92041 10.3506 5.80811C10.1553 5.6958 9.91113 5.63965 9.61816 5.63965C9.37402 5.63965 9.14453 5.68848 8.92969 5.78613C8.71484 5.87891 8.5415 6.02539 8.40967 6.22559C8.27783 6.4209 8.20703 6.67969 8.19727 7.00195H6.43213C6.44189 6.38672 6.58838 5.86914 6.87158 5.44922C7.15479 5.0293 7.53564 4.71436 8.01416 4.50439C8.49268 4.29443 9.02734 4.18945 9.61816 4.18945C10.2725 4.18945 10.8315 4.30176 11.2954 4.52637C11.7593 4.74609 12.1133 5.06836 12.3574 5.49316C12.6064 5.91309 12.731 6.4209 12.731 7.0166C12.731 7.44629 12.6455 7.83691 12.4746 8.18848C12.3037 8.53516 12.0815 8.85986 11.8081 9.1626C11.5347 9.46045 11.2393 9.7583 10.9219 10.0562C10.6484 10.3052 10.4629 10.5762 10.3652 10.8691C10.2676 11.1572 10.2163 11.4868 10.2114 11.8579ZM8.43164 14.1431C8.43164 13.8794 8.52197 13.6572 8.70264 13.4766C8.8833 13.291 9.12988 13.1982 9.44238 13.1982C9.75488 13.1982 10.0015 13.291 10.1821 13.4766C10.3628 13.6572 10.4531 13.8794 10.4531 14.1431C10.4531 14.4067 10.3628 14.6313 10.1821 14.8169C10.0015 14.9976 9.75488 15.0879 9.44238 15.0879C9.12988 15.0879 8.8833 14.9976 8.70264 14.8169C8.52197 14.6313 8.43164 14.4067 8.43164 14.1431Z" fill="white"/>
<path d="M36.2114 11.8579H34.5781C34.583 11.4038 34.6221 11.0229 34.6953 10.7153C34.7686 10.4028 34.8906 10.1196 35.0615 9.86572C35.2373 9.61182 35.4692 9.34326 35.7573 9.06006C35.9819 8.84521 36.1846 8.64258 36.3652 8.45215C36.5459 8.25684 36.6899 8.05176 36.7974 7.83691C36.9048 7.61719 36.9585 7.36572 36.9585 7.08252C36.9585 6.7749 36.9072 6.51367 36.8047 6.29883C36.7021 6.08398 36.5508 5.92041 36.3506 5.80811C36.1553 5.6958 35.9111 5.63965 35.6182 5.63965C35.374 5.63965 35.1445 5.68848 34.9297 5.78613C34.7148 5.87891 34.5415 6.02539 34.4097 6.22559C34.2778 6.4209 34.207 6.67969 34.1973 7.00195H32.4321C32.4419 6.38672 32.5884 5.86914 32.8716 5.44922C33.1548 5.0293 33.5356 4.71436 34.0142 4.50439C34.4927 4.29443 35.0273 4.18945 35.6182 4.18945C36.2725 4.18945 36.8315 4.30176 37.2954 4.52637C37.7593 4.74609 38.1133 5.06836 38.3574 5.49316C38.6064 5.91309 38.731 6.4209 38.731 7.0166C38.731 7.44629 38.6455 7.83691 38.4746 8.18848C38.3037 8.53516 38.0815 8.85986 37.8081 9.1626C37.5347 9.46045 37.2393 9.7583 36.9219 10.0562C36.6484 10.3052 36.4629 10.5762 36.3652 10.8691C36.2676 11.1572 36.2163 11.4868 36.2114 11.8579ZM34.4316 14.1431C34.4316 13.8794 34.522 13.6572 34.7026 13.4766C34.8833 13.291 35.1299 13.1982 35.4424 13.1982C35.7549 13.1982 36.0015 13.291 36.1821 13.4766C36.3628 13.6572 36.4531 13.8794 36.4531 14.1431C36.4531 14.4067 36.3628 14.6313 36.1821 14.8169C36.0015 14.9976 35.7549 15.0879 35.4424 15.0879C35.1299 15.0879 34.8833 14.9976 34.7026 14.8169C34.522 14.6313 34.4316 14.4067 34.4316 14.1431Z" fill="white"/>
</svg>
