<svg width="32" height="30" viewBox="0 0 32 30" fill="none" xmlns="http://www.w3.org/2000/svg">
<ellipse cx="15.8707" cy="15" rx="15.7059" ry="15" fill="#F38E36"/>
<path d="M6.18408 10.3359H7.82471L10.9082 18.561L13.9844 10.3359H15.625L11.5527 21H10.249L6.18408 10.3359ZM5.43701 10.3359H6.99707L7.26807 17.4551V21H5.43701V10.3359ZM14.812 10.3359H16.3794V21H14.541V17.4551L14.812 10.3359ZM24.8608 17.5283H26.6919C26.6333 18.2266 26.438 18.8491 26.106 19.396C25.7739 19.938 25.3076 20.3652 24.707 20.6777C24.1064 20.9902 23.3765 21.1465 22.5171 21.1465C21.8579 21.1465 21.2646 21.0293 20.7373 20.7949C20.21 20.5557 19.7583 20.2188 19.3823 19.7842C19.0063 19.3447 18.7183 18.8149 18.5181 18.1948C18.3228 17.5747 18.2251 16.8813 18.2251 16.1147V15.2285C18.2251 14.4619 18.3252 13.7686 18.5254 13.1484C18.7305 12.5283 19.0234 11.9985 19.4043 11.5591C19.7852 11.1147 20.2417 10.7754 20.7739 10.541C21.311 10.3066 21.9141 10.1895 22.583 10.1895C23.4326 10.1895 24.1504 10.3457 24.7363 10.6582C25.3223 10.9707 25.7764 11.4028 26.0986 11.9546C26.4258 12.5063 26.626 13.1387 26.6992 13.8516H24.8682C24.8193 13.3926 24.7119 12.9995 24.5459 12.6724C24.3848 12.3452 24.1455 12.0962 23.8281 11.9253C23.5107 11.7495 23.0957 11.6616 22.583 11.6616C22.1631 11.6616 21.7969 11.7397 21.4844 11.896C21.1719 12.0522 20.9106 12.2817 20.7007 12.5845C20.4907 12.8872 20.332 13.2607 20.2246 13.7051C20.1221 14.1445 20.0708 14.6475 20.0708 15.2139V16.1147C20.0708 16.6519 20.1172 17.1401 20.21 17.5796C20.3076 18.0142 20.4541 18.3877 20.6494 18.7002C20.8496 19.0127 21.1035 19.2544 21.4111 19.4253C21.7188 19.5962 22.0874 19.6816 22.5171 19.6816C23.0396 19.6816 23.4619 19.5986 23.7842 19.4326C24.1113 19.2666 24.3579 19.0249 24.5239 18.7075C24.6948 18.3853 24.8071 17.9922 24.8608 17.5283Z" fill="white"/>
</svg>
