<svg width="30" height="30" viewBox="0 0 30 30" fill="none" xmlns="http://www.w3.org/2000/svg">
<circle cx="15" cy="15" r="15" fill="#F38E36"/>
<path d="M5.83105 10.3359H7.47168L10.5552 18.561L13.6313 10.3359H15.272L11.1997 21H9.896L5.83105 10.3359ZM5.08398 10.3359H6.64404L6.91504 17.4551V21H5.08398V10.3359ZM14.459 10.3359H16.0264V21H14.188V17.4551L14.459 10.3359ZM24.5078 17.5283H26.3389C26.2803 18.2266 26.085 18.8491 25.7529 19.396C25.4209 19.938 24.9546 20.3652 24.354 20.6777C23.7534 20.9902 23.0234 21.1465 22.1641 21.1465C21.5049 21.1465 20.9116 21.0293 20.3843 20.7949C19.8569 20.5557 19.4053 20.2188 19.0293 19.7842C18.6533 19.3447 18.3652 18.8149 18.165 18.1948C17.9697 17.5747 17.8721 16.8813 17.8721 16.1147V15.2285C17.8721 14.4619 17.9722 13.7686 18.1724 13.1484C18.3774 12.5283 18.6704 11.9985 19.0513 11.5591C19.4321 11.1147 19.8887 10.7754 20.4209 10.541C20.958 10.3066 21.561 10.1895 22.23 10.1895C23.0796 10.1895 23.7974 10.3457 24.3833 10.6582C24.9692 10.9707 25.4233 11.4028 25.7456 11.9546C26.0728 12.5063 26.2729 13.1387 26.3462 13.8516H24.5151C24.4663 13.3926 24.3589 12.9995 24.1929 12.6724C24.0317 12.3452 23.7925 12.0962 23.4751 11.9253C23.1577 11.7495 22.7427 11.6616 22.23 11.6616C21.8101 11.6616 21.4438 11.7397 21.1313 11.896C20.8188 12.0522 20.5576 12.2817 20.3477 12.5845C20.1377 12.8872 19.979 13.2607 19.8716 13.7051C19.769 14.1445 19.7178 14.6475 19.7178 15.2139V16.1147C19.7178 16.6519 19.7642 17.1401 19.8569 17.5796C19.9546 18.0142 20.1011 18.3877 20.2964 18.7002C20.4966 19.0127 20.7505 19.2544 21.0581 19.4253C21.3657 19.5962 21.7344 19.6816 22.1641 19.6816C22.6865 19.6816 23.1089 19.5986 23.4312 19.4326C23.7583 19.2666 24.0049 19.0249 24.1709 18.7075C24.3418 18.3853 24.4541 17.9922 24.5078 17.5283Z" fill="white"/>
</svg>
