<svg width="30" height="30" viewBox="0 0 30 30" fill="none" xmlns="http://www.w3.org/2000/svg">
<circle cx="15" cy="15" r="15" fill="#057DCD"/>
<path d="M13.5215 10.3359V21H11.6904V11.8008H6.95166V21H5.12061V10.3359H13.5215ZM22.728 10.3359V11.8008H17.6157V10.3359H22.728ZM24.1343 10.3359V21H22.2959V10.3359H24.1343ZM17.2495 10.3359H19.0732L18.8169 15.6313C18.7827 16.4077 18.7168 17.0913 18.6191 17.6821C18.5215 18.2729 18.3896 18.7783 18.2236 19.1982C18.0576 19.6182 17.8477 19.9624 17.5938 20.231C17.3398 20.4946 17.0347 20.6899 16.6782 20.8169C16.3267 20.939 15.9141 21 15.4404 21H14.9717V19.5425L15.2573 19.5205C15.5161 19.501 15.7383 19.4399 15.9238 19.3374C16.1143 19.23 16.2754 19.0737 16.4072 18.8687C16.5391 18.6587 16.6489 18.3877 16.7368 18.0557C16.8247 17.7236 16.8931 17.3184 16.9419 16.8398C16.9956 16.3613 17.0347 15.8022 17.0591 15.1626L17.2495 10.3359Z" fill="white"/>
</svg>
