<svg width="138" height="32" viewBox="0 0 138 32" fill="none" xmlns="http://www.w3.org/2000/svg">
<circle cx="15" cy="17" r="15" fill="#DC682B"/>
<path d="M11.8628 19.001H8.92578L8.20068 18.7007C7.39502 18.4468 6.77734 18.061 6.34766 17.5435C5.91797 17.0259 5.70312 16.374 5.70312 15.5879C5.70312 14.8848 5.85938 14.2915 6.17188 13.8081C6.48438 13.3247 6.92871 12.9585 7.50488 12.7095C8.08594 12.4604 8.77197 12.3359 9.56299 12.3359H13.1445V23H11.2988V13.8008H9.56299C8.87939 13.8008 8.37158 13.9668 8.03955 14.2988C7.70752 14.6309 7.5415 15.0898 7.5415 15.6758C7.5415 16.0762 7.61475 16.4204 7.76123 16.7085C7.9126 16.9917 8.13477 17.2114 8.42773 17.3677C8.72559 17.519 9.09424 17.5947 9.53369 17.5947H11.8628V19.001ZM9.62158 18.1807L7.146 23H5.16846L7.67334 18.1807H9.62158ZM19.436 13.7568L16.25 23H14.3237L18.3374 12.3359H19.5679L19.436 13.7568ZM22.1021 23L18.9087 13.7568L18.7695 12.3359H20.0073L24.0356 23H22.1021ZM21.9482 19.0449V20.5024H16.1475V19.0449H21.9482Z" fill="white"/>
<circle cx="51" cy="15" r="15" fill="#F38E36"/>
<path d="M41.8311 10.3359H43.4717L46.5552 18.561L49.6313 10.3359H51.272L47.1997 21H45.896L41.8311 10.3359ZM41.084 10.3359H42.644L42.915 17.4551V21H41.084V10.3359ZM50.459 10.3359H52.0264V21H50.188V17.4551L50.459 10.3359ZM60.5078 17.5283H62.3389C62.2803 18.2266 62.085 18.8491 61.7529 19.396C61.4209 19.938 60.9546 20.3652 60.354 20.6777C59.7534 20.9902 59.0234 21.1465 58.1641 21.1465C57.5049 21.1465 56.9116 21.0293 56.3843 20.7949C55.8569 20.5557 55.4053 20.2188 55.0293 19.7842C54.6533 19.3447 54.3652 18.8149 54.165 18.1948C53.9697 17.5747 53.8721 16.8813 53.8721 16.1147V15.2285C53.8721 14.4619 53.9722 13.7686 54.1724 13.1484C54.3774 12.5283 54.6704 11.9985 55.0513 11.5591C55.4321 11.1147 55.8887 10.7754 56.4209 10.541C56.958 10.3066 57.561 10.1895 58.23 10.1895C59.0796 10.1895 59.7974 10.3457 60.3833 10.6582C60.9692 10.9707 61.4233 11.4028 61.7456 11.9546C62.0728 12.5063 62.2729 13.1387 62.3462 13.8516H60.5151C60.4663 13.3926 60.3589 12.9995 60.1929 12.6724C60.0317 12.3452 59.7925 12.0962 59.4751 11.9253C59.1577 11.7495 58.7427 11.6616 58.23 11.6616C57.8101 11.6616 57.4438 11.7397 57.1313 11.896C56.8188 12.0522 56.5576 12.2817 56.3477 12.5845C56.1377 12.8872 55.979 13.2607 55.8716 13.7051C55.769 14.1445 55.7178 14.6475 55.7178 15.2139V16.1147C55.7178 16.6519 55.7642 17.1401 55.8569 17.5796C55.9546 18.0142 56.1011 18.3877 56.2964 18.7002C56.4966 19.0127 56.7505 19.2544 57.0581 19.4253C57.3657 19.5962 57.7344 19.6816 58.1641 19.6816C58.6865 19.6816 59.1089 19.5986 59.4312 19.4326C59.7583 19.2666 60.0049 19.0249 60.1709 18.7075C60.3418 18.3853 60.4541 17.9922 60.5078 17.5283Z" fill="white"/>
<circle cx="87" cy="15" r="15" fill="#057DCD"/>
<path d="M85.5215 10.3359V21H83.6904V11.8008H78.9517V21H77.1206V10.3359H85.5215ZM94.728 10.3359V11.8008H89.6157V10.3359H94.728ZM96.1343 10.3359V21H94.2959V10.3359H96.1343ZM89.2495 10.3359H91.0732L90.8169 15.6313C90.7827 16.4077 90.7168 17.0913 90.6191 17.6821C90.5215 18.2729 90.3896 18.7783 90.2236 19.1982C90.0576 19.6182 89.8477 19.9624 89.5938 20.231C89.3398 20.4946 89.0347 20.6899 88.6782 20.8169C88.3267 20.939 87.9141 21 87.4404 21H86.9717V19.5425L87.2573 19.5205C87.5161 19.501 87.7383 19.4399 87.9238 19.3374C88.1143 19.23 88.2754 19.0737 88.4072 18.8687C88.5391 18.6587 88.6489 18.3877 88.7368 18.0557C88.8247 17.7236 88.8931 17.3184 88.9419 16.8398C88.9956 16.3613 89.0347 15.8022 89.0591 15.1626L89.2495 10.3359Z" fill="white"/>
<circle cx="123" cy="15" r="15" fill="#36A297"/>
<path d="M119.903 9.33594V10.8008H114.952V20H113.121V9.33594H119.903ZM122.181 9.33594H123.821L126.905 17.561L129.981 9.33594H131.622L127.549 20H126.246L122.181 9.33594ZM121.434 9.33594H122.994L123.265 16.4551V20H121.434V9.33594ZM130.809 9.33594H132.376V20H130.538V16.4551L130.809 9.33594Z" fill="white"/>
</svg>
