<svg width="30" height="30" viewBox="0 0 30 30" fill="none" xmlns="http://www.w3.org/2000/svg">
<circle cx="15" cy="15" r="15" fill="#DC682B"/>
<path d="M11.8628 17.001H8.92578L8.20068 16.7007C7.39502 16.4468 6.77734 16.061 6.34766 15.5435C5.91797 15.0259 5.70312 14.374 5.70312 13.5879C5.70312 12.8848 5.85938 12.2915 6.17188 11.8081C6.48438 11.3247 6.92871 10.9585 7.50488 10.7095C8.08594 10.4604 8.77197 10.3359 9.56299 10.3359H13.1445V21H11.2988V11.8008H9.56299C8.87939 11.8008 8.37158 11.9668 8.03955 12.2988C7.70752 12.6309 7.5415 13.0898 7.5415 13.6758C7.5415 14.0762 7.61475 14.4204 7.76123 14.7085C7.9126 14.9917 8.13477 15.2114 8.42773 15.3677C8.72559 15.519 9.09424 15.5947 9.53369 15.5947H11.8628V17.001ZM9.62158 16.1807L7.146 21H5.16846L7.67334 16.1807H9.62158ZM19.436 11.7568L16.25 21H14.3237L18.3374 10.3359H19.5679L19.436 11.7568ZM22.1021 21L18.9087 11.7568L18.7695 10.3359H20.0073L24.0356 21H22.1021ZM21.9482 17.0449V18.5024H16.1475V17.0449H21.9482Z" fill="white"/>
</svg>
